/* XPM */
static char *result[] = {
/* columns rows colors chars-per-pixel */
"32 32 208 2 ",
"   c #020202",
".  c #0A0204",
"X  c #010B02",
"o  c #090C04",
"O  c #030209",
"+  c #0A030A",
"@  c #03090A",
"#  c #0E0D0B",
"$  c #11060A",
"%  c #011203",
"&  c #011900",
"*  c #001209",
"=  c #0F0A10",
"-  c #1C1218",
";  c #21141C",
":  c #24191E",
">  c #1A390D",
",  c #1A2D19",
"<  c #263B0C",
"1  c #2A3D0E",
"2  c #22340A",
"3  c #213A1D",
"4  c #2E3A18",
"5  c #1B1821",
"6  c #231621",
"7  c #241A23",
"8  c #291C24",
"9  c #2C1F28",
"0  c #1C2E25",
"q  c #1D2729",
"w  c #1C3026",
"e  c #242725",
"r  c #23352B",
"t  c #3C2D35",
"y  c #3B2C39",
"u  c #313038",
"i  c #3E313B",
"p  c #3A3539",
"a  c #472736",
"s  c #4C2537",
"d  c #432C36",
"f  c #4A2A36",
"g  c #4D2738",
"h  c #432C3A",
"j  c #4B2D3A",
"k  c #512A3C",
"l  c #44333C",
"z  c #4A313C",
"x  c #413237",
"c  c #1D481B",
"v  c #284612",
"b  c #374F11",
"n  c #204229",
"m  c #3A4920",
"M  c #254230",
"N  c #37533C",
"B  c #3E7C2D",
"V  c #36762C",
"C  c #3E7A36",
"Z  c #36733B",
"A  c #3B743C",
"S  c #3D793C",
"D  c #3A7937",
"F  c #404E19",
"G  c #42531F",
"H  c #454E23",
"J  c #556D2C",
"K  c #446C3A",
"L  c #427E35",
"P  c #417B3B",
"I  c #542E43",
"U  c #473141",
"Y  c #493140",
"T  c #4D3A4A",
"R  c #483A47",
"E  c #543244",
"W  c #583245",
"Q  c #543549",
"!  c #553A4C",
"~  c #5A394E",
"^  c #5A3348",
"/  c #3B4C46",
"(  c #345443",
")  c #365D44",
"_  c #3B5947",
"`  c #3B5D4B",
"'  c #395648",
"]  c #376545",
"[  c #3C644C",
"{  c #3A6A4B",
"}  c #3C7645",
"|  c #3D7A44",
" . c #3D754B",
".. c #3E794D",
"X. c #3F7551",
"o. c #46464E",
"O. c #49454E",
"+. c #414E4C",
"@. c #494A4F",
"#. c #424345",
"$. c #415C4E",
"%. c #41524A",
"&. c #4A4A51",
"*. c #534754",
"=. c #425552",
"-. c #465952",
";. c #4D5957",
":. c #42624E",
">. c #406C4E",
",. c #4C6C43",
"<. c #437644",
"1. c #427C43",
"2. c #42744D",
"3. c #4C744D",
"4. c #427A4C",
"5. c #4E7443",
"6. c #466155",
"7. c #436D54",
"8. c #4A6956",
"9. c #437354",
"0. c #447C51",
"q. c #4A7559",
"w. c #7BAE1B",
"e. c #74AB17",
"r. c #508F36",
"t. c #518F3A",
"y. c #55923D",
"u. c #59923B",
"i. c #589638",
"p. c #498638",
"a. c #68883D",
"s. c #6A8C35",
"d. c #79AF26",
"f. c #74A42C",
"g. c #71AB2F",
"h. c #7CAB2C",
"j. c #73A825",
"k. c #6EA534",
"l. c #6CAC34",
"z. c #6BA53C",
"x. c #6EAD3B",
"c. c #66A835",
"v. c #71A632",
"b. c #73AB34",
"n. c #7AAA35",
"m. c #74A73A",
"M. c #73AC3D",
"N. c #78AB3B",
"B. c #7AA635",
"V. c #6CB039",
"C. c #74B137",
"Z. c #7AB139",
"A. c #69A72C",
"S. c #45814B",
"D. c #5D8B42",
"F. c #569445",
"G. c #5B9344",
"H. c #5A9749",
"J. c #4B954A",
"K. c #609A46",
"L. c #658C53",
"P. c #619250",
"I. c #6CA344",
"U. c #6DAA43",
"Y. c #66A64D",
"T. c #6BA44E",
"R. c #64AA49",
"E. c #6BAD4C",
"W. c #72AC43",
"Q. c #71A54A",
"!. c #71AB4B",
"~. c #77A345",
"^. c #6CB041",
"/. c #69AA57",
"(. c #78A564",
"). c #8EBE31",
"_. c #90BB3B",
"`. c #93BE31",
"'. c #8CC02F",
"]. c #97C22C",
"[. c #94C434",
"{. c #92C238",
"}. c #B1D83F",
"|. c #849C54",
" X c #829756",
".X c #93BD46",
"XX c #86A353",
"oX c #91AE52",
"OX c #97B756",
"+X c #9FBA5D",
"@X c #9EB162",
"#X c #A3BE71",
"$X c #A7CC40",
"%X c #ACCE43",
"&X c #ADD442",
"*X c #ACD945",
"=X c #AAD64F",
"-X c #B1DB4B",
";X c #B4CF5C",
":X c #ADD55B",
">X c #B7D75A",
",X c #B4D85B",
"<X c #B0D351",
"1X c #BAE04C",
"2X c #AACD65",
"3X c #B4CE6B",
"4X c #AED16D",
"5X c #B2D368",
/* pixels */
"                    .     X X b H F H X X     O   +     .     O ",
".         X X     #     % 2 b #XoX+X@XJ 1 X o   O +     .     @ ",
".                   % % v a.OX5X>X<X;X3X|.1 X     O       o     ",
".               X   n c u.~.,X$X&X&X%X>X2XXX1 4 X   X           ",
"          . .     n q.S T.v.`.}.*X*X1X&X=X:Xs. X1 X   X         ",
"                r q...D E.b.w.].[.`.-X-X*X)._.5X|.< X X .       ",
"  O     . .   X 3.2.Z J.E.c.j.h.f.n._._.).e.[.:X4XJ &   O O     ",
"O O     .   X 3 q.| S /.R.^.m.f.v.N.B.h.d.e.e.{..Xa.> *         ",
"@   O +     , 3.<.C B Y.E.M.W.k.b.v.m.N.b.b.j.h.m.~.L.3     o   ",
"O @       X N 3.A p.u.T.U.z.W.M.b.b.N.N.x.C.l.k.W.Q.(.5.X   .   ",
"  X       % [ 7.S p.K.N.b.v.b.c.A.v.g.b.c.b.x.~.!.P.P.5.%       ",
"X         * ( X.Z L ~.m.n.C.V.V.l.C.b.Z.l.c.U.E.!.G.P K % o   + ",
"      o   X ` X.A L !.m.b.k.c.V.x.M.v.C.l.V.R.R.F.C 1.5.X X @   ",
"        X   8.7.2.P H.I.z.b.x.^.z.W.v.A.V.^.U.y.C A 4.2.X   O + ",
". + .     X 6.7.9.Z L r.i.M.W.W.W.W.W.z.U.i.F.L S S.} >.%     + ",
"+   .     * ( 8.q. .S L L r.y.y.u.i.u.G.H.V P S | } { 7.X @ O O ",
"  .       X -.` [ q.0.} | S Z 1.A P P | | | } } 9. .) 8.  X @   ",
"      @     r ( ` [ 9.X. ...0.} <.2.2. . . .X.q.[ ) $.0 X     + ",
"            @ w ` ` 6.7.X.] ] 7.{ { { { { [ { >.[ ( 0 X       . ",
"          X   @ w =.6.' ` ` ` ` ` ` ` ` ` ` ` _ $.r   X     $ . ",
"        . + O   O q +.;.' ;.;./ ` ` ` =.=.;.%./ 0     o   .   . ",
"X     o     O + 5 5 u o.&.&.*.*.O.O.o.o.&.&.#.p         .     . ",
"    .   O + = 5 y R i y R ! T ! ! T ! T T R U u - e             ",
"      . + 6 6 h U h y U Q ! ~ Q ! ~ ~ ! Q Q U h z t 7     X     ",
"      . 9 t t Y h U h h Q E E W W I ^ W W E a j z t i .       X ",
"      : y U t z j Y a a j g g k k s g g j j a j a t l : +       ",
"      7 t l h d d z f f k j g g f f j f f j f z z l i ; +   +   ",
"@     + - t z d x d h d f z f d d d z l d h d l h l ; . . .   . ",
"        . 8 x t l t l x t z h j l x x x y l U t ; 9 .   . .   . ",
"    .     $ : : 8 8 h i t i y z x i t l l l p 6 . +   o . . .   ",
"X         . . .   + 7 7 6 7 6 6 6 ; 6 8 6 6 ; O       .         ",
"X     .   .   . +   +   O + O   + + + + +   =   O             X "
};
