/* XPM */
static char *result[] = {
/* columns rows colors chars-per-pixel */
"32 32 199 2 ",
"   c #020202",
".  c #090104",
"X  c #000B01",
"o  c #080A07",
"O  c #03020A",
"+  c #0B020A",
"@  c #020A08",
"#  c #0A090A",
"$  c #110809",
"%  c #001100",
"&  c #050811",
"*  c #130810",
"=  c #2D232B",
"-  c #3E2733",
";  c #352D34",
":  c #3B2C34",
">  c #3E2D3A",
",  c #3D3037",
"<  c #3D353D",
"1  c #452633",
"2  c #4A2634",
"3  c #432B36",
"4  c #4A2A36",
"5  c #432D3A",
"6  c #4B2C3A",
"7  c #512D3C",
"8  c #44323C",
"9  c #4B323D",
"0  c #42393E",
"q  c #50323E",
"w  c #3E7B1E",
"e  c #3D7F27",
"r  c #3D7C2E",
"t  c #377C27",
"y  c #327530",
"u  c #3C7C35",
"i  c #3B743E",
"p  c #367B3E",
"a  c #3C7C3B",
"s  c #367837",
"d  c #4A6E31",
"f  c #417F35",
"g  c #407A3F",
"h  c #46763C",
"j  c #542F40",
"k  c #443342",
"l  c #4B3241",
"z  c #453A43",
"x  c #4A3B47",
"c  c #4C3D49",
"v  c #543545",
"b  c #593446",
"n  c #543847",
"m  c #593748",
"M  c #533A4A",
"N  c #5A394B",
"B  c #543749",
"V  c #3D4142",
"C  c #345643",
"Z  c #335D43",
"A  c #395C46",
"S  c #3C544A",
"D  c #355E4B",
"F  c #3D5B4D",
"G  c #365750",
"H  c #3A5C53",
"J  c #335D51",
"K  c #346146",
"L  c #37614B",
"P  c #3B624C",
"I  c #386C45",
"U  c #367741",
"Y  c #3C7643",
"T  c #347940",
"R  c #397B46",
"E  c #37754B",
"W  c #3D754E",
"Q  c #37784E",
"!  c #3B7B4B",
"~  c #3B6453",
"^  c #376C52",
"/  c #3D7553",
"(  c #3F7E51",
")  c #464A4C",
"_  c #4B464E",
"`  c #42554D",
"'  c #415A4D",
"]  c #554852",
"[  c #4C5354",
"{  c #445A50",
"}  c #495A56",
"|  c #475B5A",
" . c #505155",
".. c #525358",
"X. c #436E44",
"o. c #476E4F",
"O. c #486D4E",
"+. c #447A44",
"@. c #43744D",
"#. c #417B4C",
"$. c #497548",
"%. c #416353",
"&. c #4C6057",
"*. c #436C51",
"=. c #4B6C57",
"-. c #516D56",
";. c #437354",
":. c #4D7352",
">. c #437A52",
",. c #45755B",
"<. c #49785C",
"1. c #55785B",
"2. c #3D8138",
"3. c #76A71A",
"4. c #40802C",
"5. c #478137",
"6. c #42823A",
"7. c #6FA627",
"8. c #6CA62D",
"9. c #6DA92D",
"0. c #64A32E",
"q. c #74AA25",
"w. c #74A62B",
"e. c #73AB2A",
"r. c #78AC2E",
"t. c #7AAA28",
"y. c #75B02F",
"u. c #67A633",
"i. c #6CA732",
"p. c #6EAB34",
"a. c #6BA43D",
"s. c #6CAA3B",
"d. c #66A83A",
"f. c #72A533",
"g. c #73AB34",
"h. c #7AAE37",
"j. c #71A63B",
"k. c #73AB3C",
"l. c #7BAC3C",
"z. c #7DA63C",
"x. c #6EB035",
"c. c #74B136",
"v. c #76B23A",
"b. c #3D804B",
"n. c #789749",
"m. c #799D49",
"M. c #799D55",
"N. c #6EA544",
"B. c #6BAB44",
"V. c #6DA94B",
"C. c #65AB49",
"Z. c #71A540",
"A. c #71A944",
"S. c #6FB14B",
"D. c #75B243",
"F. c #75B847",
"G. c #73B149",
"H. c #68A558",
"J. c #68A653",
"K. c #7FAC51",
"L. c #72A15B",
"P. c #6FB157",
"I. c #70B05A",
"U. c #8A9A3B",
"Y. c #839D32",
"T. c #83A721",
"R. c #87B02E",
"E. c #84B123",
"W. c #84AC39",
"Q. c #B0CE30",
"!. c #B2CB3C",
"~. c #ACD33D",
"^. c #A6D23D",
"/. c #B9D73D",
"(. c #839E4D",
"). c #849E55",
"_. c #81A244",
"`. c #80AE41",
"'. c #80A45C",
"]. c #90A351",
"[. c #A3CF46",
"{. c #AECF40",
"}. c #A2CB4B",
"|. c #B2C849",
" X c #ABD444",
".X c #A3D04F",
"XX c #ACD64D",
"oX c #AFDB48",
"OX c #BAD747",
"+X c #B4DA43",
"@X c #BBDF4B",
"#X c #AFCD5D",
"$X c #B6CF50",
"%X c #ABD650",
"&X c #ACDD51",
"*X c #ABD35C",
"=X c #B8DC52",
"-X c #AED465",
";X c #C0D556",
/* pixels */
"    O O             . .     % M._._.).X     @   @ O O . .     O ",
"    O O                 X X m.`..X%X#X].%       O & O + . .   O ",
"                @       X n.W.[.=X{.OX|.U.X X   @ O             ",
"                  X X % '.z.XX+X[.@XQ./.;XU.X @ X         o     ",
"                X X O.h a.7. X~.~.+X/./.!.$XY._.X X   O       @ ",
"          O     X 1.$.r a.q.E.OX+X^.+XOX{.=XT.#X_.X   @       O ",
"        O O     -.X.u t F.8.w.w.q.t.&X&X}.R. XXX-X'.X       O   ",
"                O.+.r C.d.D.f.k.g.e.q.e.h.w.3.&X*Xm.%       . . ",
"O O         X =.@.i f s.B.B.s.k.p.p.g.g.f.r.e.r.f.K.d X       . ",
"  O       X %.*.@.a w B.G.s.G.B.v.p.9.g.g.g.8.k.k.N.M.$.X X     ",
".     O     J <.Y f B.g.i.s.u.s.a.k.g.y.7.g.g.k.B.V.J.+.:.X   @ ",
"      O @ G ~ ^ Y 2.a.g.v.p.x.p.a.l.7.e.9.c.p.s.B.P.2.s +.1.X   ",
". .     | H J <.Y 6.B.u.p.p.g.g.l.l.8.h.p.i.9.p.C.t p b.Y :.  @ ",
"      @ S G D ;.Y a I.B.d.v.8.g.f.l.k.g.k.k.D.d.2.s b.! +.X.@ O ",
"+     X H %.Z ;.>.i a J.V.s.h.l.k.g.8.0.A.V.J.5.2.u T R Y :.    ",
"O O     ' A A @.@.>.! p e V.A.j.A.B.B.S.J.r g +.p +.! @.*.%     ",
"        X S F A ;./ Y ! p y 6.u u u u u p R ! / W >.Z <.X X     ",
"  O         ' F P ;./ E >.b.! T R R ! ! Q Q Q / ;.L F '     O   ",
"    o       X ' C ~ ;.;.<.W I #.W Q W / / / ;.;.D P ' X       # ",
"        o       } S F P C K P A K K K K K L P F ' S X   .   .   ",
"                  } } ` ` } ` { ' F F S H { ` S `           $   ",
"    .   +   * > < < ;  . .) ) [ [ [ [ [ ..[ ) V       O .       ",
"      . . 5 > 5 k > > k x _ ] z x x c c c x < ; ; . .           ",
"      . > 5 6 6 l 3 l > M M M n B N N B B n l 5 8 <             ",
"    + ; 8 9 5 6 6 6 6 6 m N b b b b N b b v 6 9 5 8 ,         @ ",
"      0 3 - 6 4 6 2 6 j j 2 2 7 7 2 7 q j 7 1 6 6 - 8 .   O     ",
"O @   : 0 4 3 9 6 6 4 1 6 6 7 7 4 2 4 2 2 2 4 q 5 4 8 0 .   @ O ",
"  O O   , 8 5 1 1 9 9 4 6 4 4 4 4 9 9 5 2 9 9 1 3 8 : . .     O ",
"      o . - 8 8 5 5 : 5 6 5 6 l 8 > 5 8 5 3 8 8 8 8 . . +       ",
"          $ : : 5 9 8 3 > 5 3 3 5 > 8 8 > 5 8 - . . .     # .   ",
"  X     . . . . + = z k < 5 k k k 5 > 5 k l - + . .     o       ",
"    . .   .   .     O O   O O + + + + + . . +   .               "
};
