/* XPM */
static char *result[] = {
/* columns rows colors chars-per-pixel */
"32 32 188 2 ",
"   c #010102",
".  c #090203",
"X  c #010B01",
"o  c #090905",
"O  c #030209",
"+  c #0A020A",
"@  c #06080A",
"#  c #08090D",
"$  c #110D0C",
"%  c #011102",
"&  c #0B0E12",
"*  c #0C1311",
"=  c #0C1B16",
"-  c #0F1719",
";  c #0E1D1A",
":  c #141514",
">  c #181617",
",  c #121C16",
"<  c #14161A",
"1  c #18171C",
"2  c #151A1B",
"3  c #191A1A",
"4  c #0D201A",
"5  c #16211D",
"6  c #161D21",
"7  c #181D21",
"8  c #1E2424",
"9  c #1F2827",
"0  c #3C791C",
"q  c #335A3F",
"w  c #3B5A3B",
"e  c #36523C",
"r  c #377B26",
"t  c #367D2F",
"y  c #38782E",
"u  c #39772A",
"i  c #39693F",
"p  c #3D7534",
"a  c #367831",
"s  c #3B7C33",
"d  c #3B753C",
"f  c #3C7C3B",
"g  c #357632",
"h  c #457D1D",
"j  c #4F6922",
"k  c #406E2E",
"l  c #49642D",
"z  c #5A6F2A",
"x  c #487E20",
"c  c #57722B",
"v  c #537425",
"b  c #406037",
"n  c #436F3E",
"m  c #426239",
"M  c #417431",
"N  c #45763F",
"B  c #407D3B",
"V  c #4A7B3E",
"C  c #437B34",
"Z  c #507831",
"A  c #517239",
"S  c #3C4846",
"D  c #3F4948",
"F  c #2E5A41",
"G  c #365644",
"H  c #3A5345",
"J  c #345D44",
"K  c #395B45",
"L  c #3C554B",
"P  c #3D5C4C",
"I  c #395651",
"U  c #3E5B54",
"Y  c #366146",
"T  c #386441",
"R  c #3C6F45",
"E  c #366349",
"W  c #3D6249",
"Q  c #3F6848",
"!  c #3C7542",
"~  c #3B7B42",
"^  c #3C744A",
"/  c #3F784B",
"(  c #425E46",
")  c #43554E",
"_  c #425C4C",
"`  c #404F54",
"'  c #445553",
"]  c #445B53",
"[  c #485D56",
"{  c #465559",
"}  c #495555",
"|  c #476F4A",
" . c #437540",
".. c #437B45",
"X. c #4E7846",
"o. c #44714D",
"O. c #4C7449",
"+. c #447A4B",
"@. c #487A4D",
"#. c #557840",
"$. c #52764A",
"%. c #456E50",
"&. c #4B6E55",
"*. c #4E6F5A",
"=. c #467455",
"-. c #497552",
";. c #4C7955",
":. c #497459",
">. c #3F8218",
",. c #3F832D",
"<. c #3E8036",
"1. c #44850F",
"2. c #458114",
"3. c #498116",
"4. c #44831A",
"5. c #4F8223",
"6. c #418136",
"7. c #40813F",
"8. c #689E3E",
"9. c #639D36",
"0. c #7E9B3F",
"q. c #6CA42D",
"w. c #7CA92E",
"e. c #74A42E",
"r. c #7DB02F",
"t. c #6EA530",
"y. c #6CAB34",
"u. c #63A53D",
"i. c #6DA538",
"p. c #65A83E",
"a. c #6CAC3D",
"s. c #71A336",
"d. c #71A831",
"f. c #73A43D",
"g. c #74AA3B",
"h. c #7AAC38",
"j. c #74B235",
"k. c #488542",
"l. c #6F9B5C",
"z. c #719D50",
"x. c #64A444",
"c. c #6BA643",
"v. c #6DAA44",
"b. c #65A64D",
"n. c #68A64D",
"m. c #6CAC4C",
"M. c #67AB44",
"N. c #76A542",
"B. c #74AA42",
"V. c #7AAD41",
"C. c #71A64C",
"Z. c #72AC4A",
"A. c #79AC4D",
"S. c #6EB349",
"D. c #74B243",
"F. c #66A554",
"G. c #66AA54",
"H. c #6CAC53",
"J. c #6DA959",
"K. c #70A650",
"L. c #79A857",
"P. c #6CB059",
"I. c #76B354",
"U. c #6EAC61",
"Y. c #73A464",
"T. c #80AF2F",
"R. c #83B039",
"E. c #A5CF3F",
"W. c #AAD23D",
"Q. c #B3D63E",
"!. c #859C41",
"~. c #839555",
"^. c #8A9D56",
"/. c #80A848",
"(. c #A9D447",
"). c #B2D344",
"_. c #B3DA45",
"`. c #B2D44C",
"'. c #B3CE5B",
"]. c #AAD756",
"[. c #ADD35C",
"{. c #ACDB51",
"}. c #B4D057",
"|. c #B6D55D",
" X c #B4CF64",
".X c #A6D561",
"XX c #AFD36F",
"oX c #B2D06E",
/* pixels */
"                              . O O O O O O                   O ",
"                    .     o         .                       O   ",
"    O O             .                     X         O O         ",
"        O         .     .   @     X   X       O   O             ",
"                + + + O O                   @                   ",
".               O O + +   o         X   @ O                 X   ",
"                O           X . X X           O                 ",
"                      X X % ~.^.^.~.% X     O               O O ",
"O O     +         X X % z N. X'.}.'.!.c X X             O O O O ",
"  O O +       X X X % Z V.[.`.).).).|.oXj % X     O     O   O O ",
"  O       .     X $.V n.s.]._.Q._.W.(.[.XXv l % X               ",
"@           X % -...y C.a.w.(._.(._.{.r.[.N.L.A X   X     .     ",
"    X       X &.R d <.b.Z.q.w.w.h.e.w.q.y.i.5.z.A X X           ",
"        % X *.=.+.~ s ,.x.B.h.0.f.N.i.j.y.2.v.C.l.$.X X         ",
".         K :.^ ~ f t r H.m.x.A.C.Z.m.c.2.M.n.J...$.|     @ O   ",
"  . @   4 W :.^ ~ <.G.H.0 h h h h h h 4.p.S.m.u J.N w X   O O O ",
"O O   < = P =.! g ,.Z.c.B.f.V.f.f.f.h.a.y.y.a.c.K.Y.b X       O ",
"  O O < , G o...<.b.h B.V.g.i.g.h.V.t.e.j.y.a.S.L.p m X     O + ",
".     : , | | d s G.m.9.B.3.3.2.a.a.y.y.1.a.x.n.M X.w %     + O ",
"  o   : = e ;.! f G.n.I.c.v.m.x.i.D.M.D.u.v.H.C N | K     O   O ",
"  .   : , | W +.d g U.F.F.n.G.P.H.m.x.H.b.P.M  .| &._ X         ",
"o     , * P P i -.k.d N B f 7.g y 6.s a k.d +.-.G %.'     X     ",
"      8 * ; L G q -.o.@.R @.^ / +.! +.+.i ;.%.K U S X X       . ",
"O   O   < - ; ] ] G W K Y F E E Y F Y Y G K P _ _ =   X     .   ",
"        O & = 6 ) ) ] _ P U L U { I [ L ) } ) ) 5 *             ",
"        O O # & : 9 S ' ' ' I { { I { ' } ) 5 : * @             ",
"                > > 3 , , 2 2 2 6 6 7 < < 3 : :           O   O ",
"                o # 3 < < : : : < < 3 < 3 :             O O O O ",
"                . .                                     O O O O ",
"              . .         . .       .         @             O O ",
".             . O O         . . . .       O                     ",
"  O               O   O X               O   O                   "
};
