/* XPM */
static char *result[] = {
/* columns rows colors chars-per-pixel */
"32 32 9 1 ",
"  c black",
". c #3E4860",
"X c #4C5C76",
"o c red",
"O c #60748A",
"+ c #92A6BA",
"@ c #F98383",
"# c white",
"$ c None",
/* pixels */
"$$$$$$$$$$$$$$$$$$$$$$$$$$$$$$$$",
"$$$$$$$$$            $$$$$$$$$$$",
"$$$$$$$$$ ...XX.X.X. $$$$$$$$$$$",
"$$$$$$$$$ O++O++++++ $$$$$$$$$$$",
"$$$$$$$$$$ OOOOOOOO $$$$$$$$$$$$",
"$$$$$$$$$$$        $$$$$$$$$$$$$",
"$$$$$$$$$$$ooo#@ooo$$$$$$$$$$$$$",
"$$$$$$$$$$$$oo##oo$$$$$$$$$$$$$$",
"$$$$$$$$$$$$o@##oo$$$$$$$$$$$$$$",
"$$$$$$$$$$$$o@##@o$$$$$$$$$$$$$$",
"$$$$$$$$$$$$o@##@o$$$$$$$$$$$$$$",
"$$$$$$$$$$$$o@##@o$$$$$$$$$$$$$$",
"$$$$$$$$$$$$o@##@o$$$$$$$$$$$$$$",
"$$$$$$$$$$$$o@##@o$$$$$$$$$$$$$$",
"$$$$$$$$$$$$o@##@o$$$$$$$$$$$$$$",
"$$$$$$$$$$$$o@##@o$$$$$$$$$$$$$$",
"$$$$$$$$$$$$o@##@o$$$$$$$$$$$$$$",
"$$$$$$$$$$$$o@##@o$$$$$$$$$$$$$$",
"$$$$$$$$$$$$o@##@o$$$$$$$$$$$$$$",
"$$$$$$$$$$$$o@##@o$$$$$$$$$$$$$$",
"$$$$$$$$$$$$o@##@o$$$$$$$$$$$$$$",
"$$$$$$$$$$$$o@##@o$$$$$$$$$$$$$$",
"$$$$$$$$$$$oo@##@oo$$$$$$$$$$$$$",
"$$$$$$$$$$$ooo##@oo$$$$$$$$$$$$$",
"$$$$$$$$$$$$oo##ooo$$$$$$$$$$$$$",
"$$$$$$$$$$$$oo@#oo$$$$$$$$$$$$$$",
"$$$$$$$$$$$        $$$$$$$$$$$$$",
"$$$$$$$$$$ OOOOOOOO $$$$$$$$$$$$",
"$$$$$$$$$ O++O++++++ $$$$$$$$$$$",
"$$$$$$$$$ ...XX.X.X. $$$$$$$$$$$",
"$$$$$$$$$            $$$$$$$$$$$",
"$$$$$$$$$$$$$$$$$$$$$$$$$$$$$$$$"
};
