/* XPM */
static char *result[] = {
/* columns rows colors chars-per-pixel */
"32 32 10 1 ",
"  c black",
". c #16181E",
"X c #2A3041",
"o c #333B51",
"O c #506275",
"+ c #8D1313",
"@ c red",
"# c #89A7B6",
"$ c white",
"% c None",
/* pixels */
"%%%%%%%%%%%%%%%%%%%%%%%%%%%%%%%%",
"%%%%%%%%%%%%%%%%%%%%%%%%%%%%%%%%",
"%%%%%%%%%%%%%%%%%%%%%%%%%%%%%%%%",
"%%%%%%%%%%%%%%%%%%%%%%%%%%$%%%%%",
"%%%%%%%%%%%%%%%%%%%%%%%%%$+$%%%%",
"%%%%%%%%%%%%%%%%%%%%%%%$$$X$%%%%",
"%%%%%%%%%%%%%$$$$$$$$$$$ $ $$$$%",
"%%%%%%%%%%%%%$                $%",
"%%%%%%%%%%%%%$ ooooooooXXXoX  $%",
"%%%%%%%%%%%%%$ o............  $%",
"%%$$$$$$$$$$$$ o@@.@@.......  $%",
"%%$            o@..@@.......  $%",
"%%$ ooooooXoX  o............  $%",
"%$$ o++...++.  X............  $%",
"%$  o+.+++.+.  o............  $%",
"%$  o..+++...  X............  $%",
"%$  o+..+..+.  X............  $%",
"%$$ X++...++.  X............  $%",
"%%$ X........  o............  $%",
"%%$                           $%",
"%%$$$$$$$$$$ oooooooooooo $$$$$%",
"%%%%%%%%%%$ O.@.+.....Ooo $%%%%%",
"%%%%%%%$$$ O.+.+..+..Oooo $%%%%%",
"%%%%%%%$  O.+.+.....Ooooo $$$%%%",
"%%%%$$$$ #O########O##      $%%%",
"%%%$     OOOOOOOOOOOOOooooX $%%%",
"%%$ ...++OOOOOOOOOoooXooooX $%%%",
"%$ ...++ OOOOOOOOOoOOOooooX $%%%",
"%$ o+.+. XoooooooooOOOooooX $%%%",
"%$ .+.+. OOOOOOOoOOOOOooooX $%%%",
"%$ .+.+. OOOOOOOXOOOOOooooX $%%%",
"%$ .o.o.                    $%%%"
};
