/* XPM */
static char *_7b653620424480adf227ccdad91fbc9SU4yxMB5J9mnwocc[] = {
/* columns rows colors chars-per-pixel */
"32 32 10 1 ",
"  c None",
". c black",
"X c #16181E",
"o c #2A3041",
"O c #333B51",
"+ c #506275",
"@ c #8D1313",
"# c red",
"$ c #89A7B6",
"% c white",
/* pixels */
"                                ",
"                                ",
"                                ",
"                          %     ",
"                         %#%    ",
"                       %%%o%    ",
"             %%%%%%%%%%%.%.%%%% ",
"             %................% ",
"             %.OOOOOOOOoooOo..% ",
"             %.O###########X..% ",
"  %%%%%%%%%%%%.O###########X..% ",
"  %............O###########X..% ",
"  %.OOOOOOoOo..O###########X..% ",
" %%.O@@XXX@@X..o###########X..% ",
" %..O@X@@@X@X..O###########X..% ",
" %..OXX@@@XXX..o###########X..% ",
" %..O@XX@XX@X..o###########X..% ",
" %%.o@@XXX@@X..o###########X..% ",
"  %.oXXXXXXXX..OXXXXXXXXXXXX..% ",
"  %...........................% ",
"  %%%%%%%%%%.OOOOOOOOOOOO.%%%%% ",
"          %.+X@X@XXXXX+OO.%     ",
"       %%%.+X@X@XX#XX+OOO.%     ",
"       %..+X@X@XXXXX+OOOO.%%%   ",
"    %%%%.$+$$$$$$$$+$$......%   ",
"   %.....+++++++++++++OOOOo.%   ",
"  %.XXX@@+++++++++OOOoOOOOo.%   ",
" %.XXX@@.+++++++++O+++OOOOo.%   ",
" %.O@X@X.oOOOOOOOOO+++OOOOo.%   ",
" %.X@X@X.+++++++O+++++OOOOo.%   ",
" %.X@X@X.+++++++o+++++OOOOo.%   ",
" %.XOXOX....................%   "
};
