/* XPM */
static char *result[] = {
/* columns rows colors chars-per-pixel */
"32 32 207 2 ",
"   c #020202",
".  c #0A0303",
"X  c #010B02",
"o  c #0A0B05",
"O  c #03040A",
"+  c #0A040A",
"@  c #020B0A",
"#  c #0A080A",
"$  c #11080D",
"%  c #021201",
"&  c #061309",
"*  c #090010",
"=  c #0D0B10",
"-  c #1F131B",
";  c #1B191D",
":  c #161115",
">  c #22161C",
",  c #24191E",
"<  c #1A361D",
"1  c #1F391E",
"2  c #18370D",
"3  c #2B3A0A",
"4  c #32390D",
"5  c #273B13",
"6  c #1D1C21",
"7  c #231721",
"8  c #241B22",
"9  c #281C24",
"0  c #1C2C24",
"q  c #1F3227",
"w  c #272D2B",
"e  c #30202B",
"r  c #362B2F",
"t  c #22342A",
"y  c #273A23",
"u  c #3C2D35",
"i  c #3C2936",
"p  c #3C3339",
"a  c #393035",
"s  c #442634",
"d  c #492634",
"f  c #442C36",
"g  c #4A2C36",
"h  c #442D3A",
"j  c #4C2C3A",
"k  c #44323B",
"l  c #4C313D",
"z  c #52303E",
"x  c #1E421F",
"c  c #264315",
"v  c #394E16",
"b  c #3D5116",
"n  c #1B4128",
"m  c #22422A",
"M  c #3C4C25",
"N  c #284032",
"B  c #264130",
"V  c #39553E",
"C  c #3A762D",
"Z  c #34603F",
"A  c #387637",
"S  c #3E7D37",
"D  c #36753B",
"F  c #3B763A",
"G  c #3C7C3C",
"H  c #377932",
"J  c #434F1F",
"K  c #40551C",
"L  c #5D6929",
"P  c #437D39",
"I  c #427A38",
"U  c #547232",
"Y  c #502F40",
"T  c #4B3542",
"R  c #4D3C4A",
"E  c #483B45",
"W  c #533445",
"Q  c #553A4B",
"!  c #55394B",
"~  c #3E4445",
"^  c #3D4844",
"/  c #395645",
"(  c #3B5C46",
")  c #3E5348",
"_  c #3D5B4A",
"`  c #335C45",
"'  c #3A5C51",
"]  c #3C6947",
"[  c #3C644D",
"{  c #3D6A4C",
"}  c #356E45",
"|  c #3C7543",
" . c #3C7A42",
".. c #3D754C",
"X. c #3E7A4C",
"o. c #367644",
"O. c #3B6F52",
"+. c #376351",
"@. c #3D7455",
"#. c #434147",
"$. c #49464D",
"%. c #4A494E",
"&. c #44464B",
"*. c #44524D",
"=. c #425C4E",
"-. c #48534F",
";. c #4D4B51",
":. c #544250",
">. c #465650",
",. c #495652",
"<. c #485B58",
"1. c #41614C",
"2. c #43684C",
"3. c #4A6A4C",
"4. c #506D4E",
"5. c #437543",
"6. c #437B41",
"7. c #43724D",
"8. c #42784C",
"9. c #51794E",
"0. c #436551",
"q. c #486A55",
"w. c #427553",
"e. c #4C7856",
"r. c #4F7158",
"t. c #457957",
"y. c #54725A",
"u. c #3D8232",
"i. c #3D8138",
"p. c #79A91B",
"a. c #77AE1D",
"s. c #478839",
"d. c #548F39",
"f. c #55913C",
"g. c #5C9A3C",
"h. c #5B943D",
"j. c #708A33",
"k. c #6AA728",
"l. c #6CAB2C",
"z. c #75A62E",
"x. c #7CAF2E",
"c. c #73A928",
"v. c #6EA735",
"b. c #6CAA34",
"n. c #6CA53C",
"m. c #6EAA3A",
"M. c #67A53A",
"N. c #73A633",
"B. c #7AA730",
"V. c #73AB34",
"C. c #7BAB35",
"Z. c #72A739",
"A. c #73AB3B",
"S. c #78AA39",
"D. c #6FB133",
"F. c #73B336",
"G. c #74B03E",
"H. c #458248",
"J. c #5A8545",
"K. c #4C9345",
"L. c #569343",
"P. c #5A9344",
"I. c #5B994A",
"U. c #698940",
"Y. c #679041",
"T. c #629C52",
"R. c #7E9B58",
"E. c #6CA642",
"W. c #6DA943",
"Q. c #67A54B",
"!. c #6CA54C",
"~. c #67AA48",
"^. c #6DAA4A",
"/. c #73AB44",
"(. c #71AC4D",
"). c #78A849",
"_. c #6AB04E",
"`. c #69A757",
"'. c #81AB1B",
"]. c #80AE2A",
"[. c #8EBF28",
"{. c #8FBB32",
"}. c #96BB33",
"|. c #94BD3B",
" X c #8FC332",
".X c #94C337",
"XX c #ACD73F",
"oX c #8C9B53",
"OX c #809958",
"+X c #93B941",
"@X c #94B354",
"#X c #9EB65D",
"$X c #9FB96F",
"%X c #91C050",
"&X c #ACCC43",
"*X c #ACD143",
"=X c #ADD843",
"-X c #AFD84B",
";X c #B5D94A",
":X c #B4CF5A",
">X c #ADD45A",
",X c #AFD250",
"<X c #B5D858",
"1X c #B4CB63",
"2X c #B8CC6B",
"3X c #ACD171",
"4X c #B0D271",
/* pixels */
"    O           .   o       X M b b J X o     X O X   .     .   ",
"        O         o   X % 5 v $X@X$X#XL 4   %     O . . . .     ",
".                   X X c U.@X>X<X,X:X2XoX4 X   O     . . .     ",
"                    B n J.A.<X=X*XXX&X<X1XoX3 y %   X   . .     ",
"            X     B e.I ^.V. XXX=X=X;X*X<X:Xj.OXc X   X     .   ",
"                t r.8.H ~.F.a.[. X}.-X;X;X}.|.4XR.5 X         . ",
"      O O     X y.7.o.K._.M.c.x.z.C.+X|.}.'.|.>X3XU %   O O     ",
"      O     & < w. .i.`.~.m.V.z.N.S.N.B.].p.p..X@XY.2 X O O     ",
"@   O       y 2.8.F S Q.(./.A.N.V.z.V.A.V.z.c.x.V.(.9.n %     X ",
"@ @       X V w.| G L.^.n.Z.A.S.V.V.A.A.A.A.z.v.v.(.R.I < % X   ",
"  X     # w [ .. .s.Q./.Z.V.N.V.k.l.l.V.b.A.A.W.(.Q.T.I 9.1 X   ",
"X       w ) _ O.D u.~.m.V.C.Z.Z.F.F.l.F.b.m.E.(.Q.I.C A 9.4.X   ",
"    X   &.<.' t.D u.~.A.V.N.v.Z.b.G.b.F.l.b.W.!.L.S G F 5.3.%   ",
"  X     <.' +.@.X.i.g.M.b.A././.n./.b.b.A.n.!.L.S G  .X.7.3.X   ",
"+ *     =.1.+.O.X.o.i.s.g.~.(.^././.W.M.^.h.P.I G  . .o.7.m X   ",
"* O +   t / ` O.@.X.F s.C d.h.d.h.f.f.L.T.H 5.I X.X.} w.n %     ",
"+   .     0 _ _ 2.w...X.6.A H.F G G G G  .o.X.7.w.{ ` q.X X   + ",
"    @ O   @ q >.[ [ { w.t.X.8. .7.X.X.X.....w.w.` 0._ 0 o       ",
"            @ q ) =.2.2.{ ] V ] { } { { [ { O.0.0./ q   X   +   ",
"        o O   O t ) =._ / 1.( 1._ _ _ / _ _ _ _ >.0 X       . . ",
"            + 6 6 ~ ~ *.,.,.,.*.*.>.*.>.>.,.*.^ t       O   o   ",
"        + - 9 i u E p #.%.$.%.#.%.%.%.%.;.;.#.p ;       .       ",
"      . 7 T i i h Y i T Q R :.:.R R R E R R k u r 8 .   . .     ",
"    . > i T i Y Y i T Y W ! Q W ! ! Q ! R T T h k u 7 .       O ",
"  O + a u h h f j j j Y W Y z z W j W W W W s j T i k +     +   ",
"    + a T f s j g g g d j d g z j d g g j j s j s f k > $       ",
"O O   7 k f j f g l g g j j j g g g g g g j l l f T a - + O O   ",
"O       , u T h f k f f g j g d d g z g f g f f f k > +       O ",
"    +   . > k f u k f a f h f l g k k f h k l u > 9 .     +     ",
"    o     . ; - , i k p a p k k k f u k p k u 7 . $       +     ",
"o       .         : 8 9 7 7 > 7 7 > - e 7 8 -     .             ",
"                  O         .   . X         =   +           O   "
};
