/* XPM */
static char *d1dca9c1b9ed4b9ab597f12ac77c4cc6uCWT8CuHnNXDUcZ3[] = {
/* columns rows colors chars-per-pixel */
"32 32 171 2 ",
"   c #010101",
".  c #0B0100",
"X  c #0B0901",
"o  c #010209",
"O  c #0B040C",
"+  c #130000",
"@  c #190000",
"#  c #0C0610",
"$  c #2A160F",
"%  c #2D1A15",
"&  c #231E1A",
"*  c #291B1A",
"=  c #26211E",
"-  c #282119",
";  c #3D2B1F",
":  c #342214",
">  c #211F22",
",  c #1D2228",
"<  c #262423",
"1  c #2E2423",
"2  c #25252D",
"3  c #352C27",
"4  c #3B2E26",
"5  c #3C2F29",
"6  c #342C2A",
"7  c #3F3327",
"8  c #39302B",
"9  c #33373A",
"0  c #3B3539",
"q  c #3A3B3F",
"w  c #3D3332",
"e  c #4C2A0F",
"r  c #462611",
"t  c #462C16",
"y  c #4C2D15",
"u  c #4B301B",
"i  c #51301C",
"p  c #453121",
"a  c #483024",
"s  c #49372D",
"d  c #55422D",
"f  c #5C432F",
"g  c #4F4637",
"h  c #544333",
"j  c #5D4534",
"k  c #564A3C",
"l  c #62412A",
"z  c #68462D",
"x  c #6F4E2D",
"c  c #724F2F",
"v  c #614631",
"b  c #6A5037",
"n  c #6D583B",
"m  c #725037",
"M  c #7B5333",
"N  c #75543C",
"B  c #74593D",
"V  c #7A583F",
"C  c #544B43",
"Z  c #5D5145",
"A  c #5E5149",
"S  c #685342",
"D  c #66514C",
"F  c #735645",
"G  c #7A5744",
"H  c #735A45",
"J  c #725D4C",
"K  c #7D6259",
"L  c #81583A",
"P  c #845D42",
"I  c #806047",
"U  c #85674D",
"Y  c #8D6A4C",
"T  c #986F4F",
"R  c #8D6B50",
"E  c #947050",
"W  c #94745B",
"Q  c #89796A",
"!  c #917A6C",
"~  c #967D78",
"^  c #878078",
"/  c #B79379",
"(  c #AB988A",
")  c #A2938C",
"_  c #B29680",
"`  c #BA9F8C",
"'  c #A99D90",
"]  c #AB9D9C",
"[  c #BFA38D",
"{  c #AFA099",
"}  c #B5A594",
"|  c #BFAA96",
" . c #B8A5A1",
".. c #BCADA3",
"X. c #BCAEAC",
"o. c #ACB6AE",
"O. c #BDB0A3",
"+. c #BFB8AE",
"@. c #BAB3AB",
"#. c #BAB6B5",
"$. c #B3B1B2",
"%. c #C4A186",
"&. c #C5A48B",
"*. c #C8A68B",
"=. c #C4A592",
"-. c #C6AD97",
";. c #C4AC9C",
":. c #CAAF9E",
">. c #CDAD94",
",. c #CBB09B",
"<. c #D1B39D",
"1. c #D7B99F",
"2. c #DBB99F",
"3. c #C3AFA3",
"4. c #C5B4A4",
"5. c #CDB6A4",
"6. c #C3B5AA",
"7. c #C9B6AA",
"8. c #CDB8AB",
"9. c #D8B7A6",
"0. c #D3B9A5",
"q. c #DABBA6",
"w. c #D4BCAB",
"e. c #DBBDAB",
"r. c #C8B5B3",
"t. c #C6BCB3",
"y. c #CDBCB2",
"u. c #C5BCBC",
"i. c #D5BEB6",
"p. c #D7BFBB",
"a. c #DAC1AD",
"s. c #CEC0B7",
"d. c #CFC6BF",
"f. c #D4C1B2",
"g. c #DAC2B6",
"h. c #D3C7BB",
"j. c #DEC6BC",
"k. c #DDCABB",
"l. c #E5C2A6",
"z. c #E3C1A8",
"x. c #E4C5B3",
"c. c #CEC6C3",
"v. c #D4CEC2",
"b. c #DED5D6",
"n. c #ECDACE",
"m. c #E3D3C3",
"M. c #E2DAD3",
"N. c #EADBD3",
"B. c #E8DEDD",
"V. c #E1DBDB",
"C. c #ECE2D6",
"Z. c #E5E3DD",
"A. c #FFEADE",
"S. c #E5DFE1",
"D. c #ECEDE7",
"F. c #FDEDE4",
"G. c #F4EFEC",
"H. c #FFEEEA",
"J. c #FAF0E7",
"K. c #FFF3EC",
"L. c #FDF3EB",
"P. c #F8FAEF",
"I. c #F7FEF6",
"U. c #FFFFF4",
"Y. c #F5FFFF",
"T. c #FFFFFA",
"R. c #FFFBFC",
"E. c #FFFEFF",
"W. c #FFFEFD",
"Q. c #F8FEFE",
"!. c #FBF5F9",
/* pixels */
"                    o   X . ( ' I.Y.Q.  #   o               X o ",
"o                 o     . { 3...T.o.E.    O O               o   ",
"                o   O   u.r.p.8.U.I.T.#.  .                   O ",
"                      . ]  .~ i.7.v.^ c.X                       ",
"                        ) t.g.! f.Q s.d.  .                   o ",
"o o                 . . ( } + w.w.k.. t.                        ",
"  o o                   C.O.f.i.f.w.y.M.X                       ",
"                  T.T.  M.O.h.F.F.K.y.L.      o                 ",
"                W.W.W.W.V.L.b.* D $ L.D.Z.  o     o o           ",
"                W.$.R.W.u.S.!.$.@.| N.C.D.                      ",
"                W.W.W.6 u.M.G.B.H.K.M.M.X       o               ",
"                  5 C A 4 t.B.J.H.N.J.s.+.          o           ",
"      o       . . ..p s a } s.m.n.n.7.4.6.O.. .       o         ",
"          o     6.8.9.u j u | | 5.4.w.0.5.7.6..                 ",
"              . 3.;.x.t l i =.[ 0.<.,._ 5.0.| + .               ",
"              . . 8.e.e.i 9.9.=.[ 0.<.[ q.a.3.. .               ",
"                  . r.i.x.w.q.i %.&.*.q.a.4.@.                  ",
"                    . r.7.9.<.e / %.l.1.w...            .       ",
"                  . . @ @ r z l e 2.2.1.-.. X                   ",
"                  . . @ N G e l.q.a.>.B @ . .                   ",
"              o   . @ @ M P P 9.a.,.y I V + . .   o             ",
"            o     . @ c T L G F a j t W Y b + .     o           ",
"            o o   . B Y M R G K % s v y R U J .     o           ",
"      .     o     . n x E m @ % 1 5 j u t B S .                 ",
"    .   .   o o     + B U H . 1 0 1 t j y H + .                 ",
"            o o   X h d H X w 0   = 3 p t j h .     o           ",
"      X             h h . . < 2   < 4 : . d Z     o             ",
"              o   X   C . & q ,     6 p . k Z                   ",
"                    . .   < 9 o o   & =   C   o                 ",
"                            X           X                       ",
"o                 X   X                     o o       .         ",
"  o                 .                       o o     .   .       "
};
