/* XPM */
static char *ef260925ba314f7099861fcebd9e6355QUAT147bmssYgjI7[] = {
/* columns rows colors chars-per-pixel */
"32 32 161 2 ",
"   c #010101",
".  c #0B0100",
"X  c #030805",
"o  c #0D0802",
"O  c #010409",
"+  c #090708",
"@  c #04090D",
"#  c #0C0B09",
"$  c #120000",
"%  c #1B0100",
"&  c #150C03",
"*  c #281E15",
"=  c #341F12",
"-  c #26221F",
";  c #2E241B",
":  c #372416",
">  c #31231A",
",  c #3E2C1E",
"<  c #232324",
"1  c #2C2825",
"2  c #353535",
"3  c #333738",
"4  c #373B3C",
"5  c #38393B",
"6  c #4A2610",
"7  c #452816",
"8  c #4C2C15",
"9  c #432618",
"0  c #4A2E19",
"q  c #502B11",
"w  c #4B301D",
"e  c #54331B",
"r  c #432D22",
"t  c #492D20",
"y  c #453123",
"u  c #4B3121",
"i  c #45352C",
"p  c #4D4037",
"a  c #554233",
"s  c #5C4333",
"d  c #52483F",
"f  c #5B493E",
"g  c #65442D",
"h  c #624535",
"j  c #634837",
"k  c #664C39",
"l  c #6B4F3A",
"z  c #6C503A",
"x  c #74523A",
"c  c #7A583D",
"v  c #4D4844",
"b  c #635244",
"n  c #6F5441",
"m  c #685648",
"M  c #6A584A",
"N  c #6B5F53",
"B  c #8A664C",
"V  c #8F6A4F",
"C  c #896B53",
"Z  c #8A6E59",
"A  c #846D5B",
"S  c #8C705A",
"D  c #9F7A5F",
"F  c #877261",
"G  c #9D7B62",
"H  c #927F71",
"J  c #8E847A",
"K  c #9D8374",
"L  c #A38C7E",
"P  c #AC8D78",
"I  c #AE9078",
"U  c #9E9995",
"Y  c #BD9F87",
"T  c #BE9F8A",
"R  c #A59993",
"E  c #AC9F96",
"W  c #A59B99",
"Q  c #BDA28C",
"!  c #BFA292",
"~  c #B9A79D",
"^  c #AEAAA7",
"/  c #B7ABA3",
"(  c #BCACA2",
")  c #BDB2A7",
"_  c #BBB2AB",
"`  c #BCBBB6",
"'  c #BEBFBA",
"]  c #C4A48A",
"[  c #C2A794",
"{  c #C9AA93",
"}  c #C3AB9C",
"|  c #D2AE94",
" . c #CBB29C",
".. c #D1B296",
"X. c #D1B09F",
"o. c #DDBB9F",
"O. c #C2ACA1",
"+. c #CFAFA0",
"@. c #C3B1A6",
"#. c #CCB5A6",
"$. c #CEB8A1",
"%. c #C3B3AB",
"&. c #C9B7AB",
"*. c #C6BAAE",
"=. c #CBB9AC",
"-. c #D2B3A5",
";. c #D3BBA6",
":. c #DABBA4",
">. c #D2BCAC",
",. c #DBBCA9",
"<. c #C5BCB4",
"1. c #CCBDB4",
"2. c #D3BEB2",
"3. c #E0BDA4",
"4. c #DFC0A3",
"5. c #D4C2AE",
"6. c #DDC1AC",
"7. c #CEC0B5",
"8. c #C5C1BE",
"9. c #CBC3B9",
"0. c #D4C2B5",
"q. c #DCC2B3",
"w. c #D4C4BA",
"e. c #D8C4BB",
"r. c #E0C2AB",
"t. c #E1C5BA",
"y. c #DFD9D3",
"u. c #E1D4CB",
"i. c #E4D8CF",
"p. c #EADCCF",
"a. c #EAD7D0",
"s. c #E3DBD4",
"d. c #EBDDD5",
"f. c #E1DED9",
"g. c #E8DFDA",
"h. c #E3E1DB",
"j. c #EAE3DB",
"k. c #F2EFE8",
"l. c #FAEFEB",
"z. c #FAECE3",
"x. c #F6F1EB",
"c. c #F7F3EC",
"v. c #FBF0EA",
"b. c #FFF4EB",
"n. c #FEF3ED",
"m. c #FFF6ED",
"M. c #FAF1EC",
"N. c #F1F7F5",
"B. c #FDF7F1",
"V. c #FEF5F0",
"C. c #FFF9F2",
"Z. c #FBFAF5",
"A. c #FFFBF5",
"S. c #FFFEF6",
"D. c #F2F8F8",
"F. c #FFFEF8",
"G. c #FFFDFA",
"H. c #FEFFFD",
"J. c #FFFFFD",
"K. c #FCFFFF",
"L. c #FEFFFF",
/* pixels */
"                +   O   O         X   O O O                     ",
"                    O O     W R L.N.K.    +                     ",
"          . .             R / <.G.` L.                        O ",
"                    +   <.w.&.&.m.m.A.8.                    O   ",
"                +     . R ~ L >.0.0.J 9.    X                   ",
"                  +   . E O.#.K 6.J 7.<.      X                 ",
"          O           . E @.$ >.>.2.$ 9.  X X               O   ",
"            O           i.( 0.2.2.e.1.f.                        ",
"        O   O   O O     j./ 9.i.a.d.<.B.  X       O             ",
"          O   O   D.L.' f.x.f._ %.( B.x.h.          O           ",
"                K.L.G.Z.' f.k.V.l.l.j.y.c.X   + O               ",
"        O       L.^ G.S.<.g.l.s.l.l.s.s.)           O           ",
"              . G.A.n.i %.*.g.n.B.d.z.0.%.( $ .       O         ",
"        O       . i f f r 2.&.d.u.a.=.2.O.>.O..                 ",
"              . . } 0 h r t.2.2.w.5.>.r.X.X.#.$ .             . ",
"              . @.#.-.t s 9 t.>.#.0.,.P 3.-.} $       O         ",
"                ) =.2.0 k 7 [ [ $.Q Q ] :.6.) .                 ",
"                  <.=.>.0 6.,.T ! Q ] 4.:.;.)                   ",
"                . . =.;.,.:.3.q Q { ] o.r.$.$     O             ",
"                . . $  .:.:.| e I Q o.4...$ $                   ",
"                $ . $ % g 8 g g q :.o.| c % . .                 ",
"    O             $ $ l Z C e :.6.4.| V B z $ .                 ",
"                . . b A A n $ :.:.{ 8 D B Z M                   ",
"                    N m m . : = u h 6 x D z m .                 ",
"                .   . d . > ; > * t g 8 x s . .                 ",
"                      v . 1 -   . w f 0 0 s f                   ",
"                  #     3 < <   . . y s u a a .                 ",
"                          3 O O .   . y , b                     ",
"          O       +     < 4   O     . . . . o                   ",
"                        < 4     O @   . & .                     ",
"                  .   o     X   O O       .   O                 ",
"                                  O O         O         .       "
};
