/* XPM */
static char *_0346d1ffa3042f0fd4cb566407ec1aepI3VIdhItBRhn9rI[] = {
/* columns rows colors chars-per-pixel */
"32 32 162 2 ",
"   c #010101",
".  c #0A0100",
"X  c #030805",
"o  c #01040A",
"O  c #090708",
"+  c #130100",
"@  c #1C0200",
"#  c #2D1C12",
"$  c #282216",
"%  c #24201A",
"&  c #2E2219",
"*  c #332217",
"=  c #3E2715",
"-  c #2A2722",
";  c #2D2A21",
":  c #362F27",
">  c #2D322C",
",  c #3E3731",
"<  c #3B3B33",
"1  c #46220C",
"2  c #432616",
"3  c #482714",
"4  c #452913",
"5  c #4B2C13",
"6  c #422B1D",
"7  c #4B2E1B",
"8  c #512E18",
"9  c #4F331E",
"0  c #553016",
"q  c #50331F",
"w  c #422E21",
"e  c #492D21",
"r  c #443025",
"t  c #4F3826",
"y  c #43362C",
"u  c #473831",
"i  c #603F2C",
"p  c #4F4239",
"a  c #554536",
"s  c #5B4333",
"d  c #544639",
"f  c #50483D",
"g  c #5E4A3D",
"h  c #60412F",
"j  c #614434",
"k  c #694C35",
"l  c #6C4E39",
"z  c #714F34",
"x  c #6D513C",
"c  c #775339",
"v  c #5D4C42",
"b  c #604E40",
"n  c #694F40",
"m  c #665143",
"M  c #6D5241",
"N  c #67554A",
"B  c #68564A",
"V  c #765641",
"C  c #8B674D",
"Z  c #8F6A4F",
"A  c #856A59",
"S  c #896A58",
"D  c #926E54",
"F  c #8D715C",
"G  c #90715F",
"H  c #987358",
"J  c #8A7363",
"K  c #9B7960",
"L  c #927F71",
"P  c #8E847A",
"I  c #9D8374",
"U  c #A38C7E",
"Y  c #AC8D78",
"T  c #AC907B",
"R  c #9E9995",
"E  c #BA9E89",
"W  c #A59993",
"Q  c #AC9F96",
"!  c #A59B99",
"~  c #BCA28C",
"^  c #BDA490",
"/  c #B9A79D",
"(  c #AEAAA7",
")  c #B7ABA3",
"_  c #BBACA3",
"`  c #B8AFA8",
"'  c #BFB3A7",
"]  c #BBB2AB",
"[  c #BCBBB6",
"{  c #BEBFBA",
"}  c #C0A185",
"|  c #C3A58D",
" . c #CDA98F",
".. c #C1A590",
"X. c #C5A991",
"o. c #C3AB9C",
"O. c #CFAF9A",
"+. c #D5B49D",
"@. c #D9B59D",
"#. c #DBBA9D",
"$. c #C2ACA1",
"%. c #CFAFA0",
"&. c #C2B1A5",
"*. c #CCB5A6",
"=. c #C2B3AB",
"-. c #C9B7AB",
";. c #CBB9AD",
":. c #D2B3A3",
">. c #D9B6A0",
",. c #D4BAA5",
"<. c #DBBCA5",
"1. c #D3BCAB",
"2. c #DBBDAA",
"3. c #C5BCB4",
"4. c #CCBDB4",
"5. c #D3BEB2",
"6. c #E2BFA3",
"7. c #D4C2AE",
"8. c #DEC0A8",
"9. c #CEC0B5",
"0. c #C5C1BE",
"q. c #CBC3B9",
"w. c #D4C2B5",
"e. c #DBC2B3",
"r. c #D4C4BA",
"t. c #D8C4BB",
"y. c #E2C3AD",
"u. c #E7C7B0",
"i. c #E1C5BA",
"p. c #DFD9D3",
"a. c #E1D4CB",
"s. c #E4D8CF",
"d. c #EADCCF",
"f. c #EAD7D0",
"g. c #E3DBD4",
"h. c #EBDDD5",
"j. c #E1DED9",
"k. c #E8DFDA",
"l. c #E2E1DA",
"z. c #E7E2DC",
"x. c #EAE3DB",
"c. c #F2EFE8",
"v. c #FAEFEB",
"b. c #FAECE3",
"n. c #F6F1EB",
"m. c #F7F3EC",
"M. c #FBF0EA",
"N. c #FFF4EB",
"B. c #FFF6ED",
"V. c #FCF2ED",
"C. c #F1F7F5",
"Z. c #FDF7F1",
"A. c #FEF5F0",
"S. c #FFF9F2",
"D. c #FFFBF5",
"F. c #FFFEF6",
"G. c #FBFAF5",
"H. c #F2F8F8",
"J. c #FFFEF9",
"K. c #FFFFFD",
"L. c #FCFFFF",
"P. c #FEFFFF",
/* pixels */
"                O   o o           X   o o o                     ",
"                    o       ! W K.C.L.    O                     ",
"            .             ! ) 3.J.[ K.                        o ",
"        .           O   3.r.-.-.B.Z.D.0.                        ",
"                O     . W / U 1.w.w.P q.    X                 o ",
"                  O   . Q $.*.I e.L 9.3.      X                 ",
"                      . Q &.. 1.1.w.. q.  X X                 X ",
"        o   o           s._ w.w.5.t.4.g.                        ",
"          o o     o     z.` q.f.f.h.3.Z.  X       o o           ",
"          o   o o H.K.{ j.n.g.] =._ Z.m.l.                      ",
"                L.K.J.G.{ j.c.A.v.v.k.p.m.X   O o               ",
"        o       K.( F.F.3.k.v.g.V.v.g.g.'           o           ",
"        o       J.D.V.y =.3.k.V.B.h.b.4.=._ + .                 ",
"              . . y v s w 5.-.h.a.f.;.5.%.;._ .       X         ",
"              . . o.e j e i.5.5.r.5.7.u.:.%.:.. .               ",
"              . &.*.:.7 i 2 i.5.*.7.,.Y 6.:.o.+               . ",
"                ` ;.1.4 k 5 ....,.~ | | 8.7.'                   ",
"o     .           =.e.y.5 +.y.~ ~ X.~ #.#.1.'                   ",
"                  . ,.:.>.y.2.7 ~ }  .#.<.<.. .                 ",
"  o               + + 2.>.@.:.7 T } #.y.@.+ .                   ",
"o o             . . @ + V 3 j j <.u.#.@.z @ . .                 ",
"                  . + M S J e e.8.+. .Z D k + .                 ",
"                  . B J A l . r 1.O.0 H C F b .                 ",
"                    B m m + * # 6 l 1 c K x N                 o ",
"        .           . a + . $ & * 7 h 5 z s + .                 ",
"o     .           . . f . $ < - . r j t q t v                   ",
"                    + f   : >     u 6 s = j d                   ",
"                  X               . y r r f .                   ",
"                      .     X o     , y * . .                   ",
"            o         .         o o % :   .                     ",
"                O   . . .   o o o o   O .   X                   ",
"              o         .     o o o o         X                 "
};
