/* XPM */
static char *_f0feb8c0df34c44aba9162b9c3fc2d4iVSpBSTL3SFZqvmT[] = {
/* columns rows colors chars-per-pixel */
"32 32 172 2 ",
"   c #010101",
".  c #0A0101",
"X  c #060B07",
"o  c #0F0900",
"O  c #040409",
"+  c #020C0D",
"@  c #130200",
"#  c #180000",
"$  c #130907",
"%  c #1F180E",
"&  c #1B1A14",
"*  c #271200",
"=  c #2B1403",
"-  c #20130A",
";  c #21190C",
":  c #2C1B0B",
">  c #321903",
",  c #35180A",
"<  c #221411",
"1  c #231C14",
"2  c #2B1C13",
"3  c #331F16",
"4  c #2D221E",
"5  c #2B291D",
"6  c #33221D",
"7  c #1F2322",
"8  c #232520",
"9  c #2C2322",
"0  c #3E2B24",
"q  c #3D2E2B",
"w  c #352321",
"e  c #3C312B",
"r  c #4D2E14",
"t  c #44281D",
"y  c #4A2C1C",
"u  c #512C1A",
"i  c #4D321F",
"p  c #50301B",
"a  c #462D25",
"s  c #482C20",
"d  c #452D29",
"f  c #473221",
"g  c #4D3227",
"h  c #493A27",
"j  c #43332F",
"k  c #443A2B",
"l  c #5A3A21",
"z  c #5C3F31",
"x  c #4D413D",
"c  c #564032",
"v  c #5D4231",
"b  c #59453C",
"n  c #5E483A",
"m  c #56453B",
"M  c #64442B",
"N  c #68442C",
"B  c #694630",
"V  c #6B4835",
"C  c #63453B",
"Z  c #6E4D3A",
"A  c #6E523C",
"S  c #705135",
"D  c #75553C",
"F  c #534842",
"G  c #5C4B41",
"H  c #604D49",
"J  c #655444",
"K  c #665448",
"L  c #6A584E",
"P  c #745946",
"I  c #7F5B45",
"U  c #7E5D4C",
"Y  c #665752",
"T  c #78736D",
"R  c #85593E",
"E  c #815940",
"W  c #8C6445",
"Q  c #87654A",
"!  c #93674A",
"~  c #866B56",
"^  c #896E59",
"/  c #936E51",
"(  c #996E52",
")  c #98765B",
"_  c #947155",
"`  c #A27959",
"'  c #89756A",
"]  c #867468",
"[  c #A07D61",
"{  c #A98E79",
"}  c #BA957C",
"|  c #A4968F",
" . c #AA998D",
".. c #B39480",
"X. c #B59A87",
"o. c #B99984",
"O. c #B59C88",
"+. c #B99E89",
"@. c #A29791",
"#. c #AC9C92",
"$. c #A49995",
"%. c #B19D94",
"&. c #ACA39E",
"*. c #BFA596",
"=. c #BEAC9D",
"-. c #B5A89C",
";. c #A8A7A3",
":. c #B1A9A7",
">. c #BBACA2",
",. c #BBADAA",
"<. c #B7B3B0",
"1. c #BCB4B1",
"2. c #BBBABB",
"3. c #C7A790",
"4. c #C3A996",
"5. c #C1AB9D",
"6. c #CEAF9B",
"7. c #D0AD9A",
"8. c #D5B29B",
"9. c #D8B69D",
"0. c #DDB89E",
"q. c #D5BA9D",
"w. c #C2AEA3",
"e. c #CBAFA1",
"r. c #C6B2A3",
"t. c #CDB6A5",
"y. c #C5B6AF",
"u. c #C9B6AB",
"i. c #CCBAAE",
"p. c #D2B6A4",
"a. c #D6BBA6",
"s. c #DAB6A8",
"d. c #D4BDAD",
"f. c #DDBCAB",
"g. c #C3B8B2",
"h. c #CEBDB3",
"j. c #D3BDB1",
"k. c #E2BDAB",
"l. c #DCC1A5",
"z. c #D5C0AD",
"x. c #D9C3AE",
"c. c #CDC3BC",
"v. c #D4C2B6",
"b. c #DCC3B3",
"n. c #D7C6BE",
"m. c #DAC9BC",
"M. c #E0C1A5",
"N. c #E4C1AD",
"B. c #E0C5B2",
"V. c #C2C0C1",
"C. c #DFDDDE",
"Z. c #E6D7D4",
"A. c #E3D8D4",
"S. c #EFDED7",
"D. c #E1DDD9",
"F. c #E4E0DF",
"G. c #E8E0DD",
"H. c #F1E0D9",
"J. c #F5ECE7",
"K. c #FBECE5",
"L. c #F0ECE9",
"P. c #FFF1E3",
"I. c #F7F1EC",
"U. c #FFF2EA",
"Y. c #FCF3ED",
"T. c #FFFAEE",
"R. c #FFF6F2",
"E. c #FFFBF4",
"W. c #FFFCFA",
"Q. c #FFFFFE",
"!. c #FFFBFA",
"~. c #F5F4F2",
/* pixels */
"                        . . #. .$.J.~.    X           .         ",
"                  O O     #.5.w.y.J.<.O   + O       .           ",
"      .           O   . :.&.>.-.#.U.R.;.      X                 ",
"                O O     &.>.h.' j.n.c.T     O               O   ",
"                    . . | u.d.v.' u.] V..                       ",
"O                     . #.5.d.# b.v.v..                       O ",
"  O O               . .  .P.z.d.j.i.n.V.o                       ",
"        O O             Y.U.h.v.K.U.K.h.                        ",
"  .               O   V.C.F.L.G.- Y 1 I.F.  .                   ",
"  . .               O 2.2.2.Q.!.!.,.1.Y.C.          O           ",
"  .                     2.Q.Q.<.Q.Z.K.A..                       ",
"        O           . @.y.e E.E.R.H.S.| . .                     ",
"      O O       . @ %.r.r.f n T.Y.a %.w. .. .       O           ",
"    O   O O     . . 5.x.B.{ i v v s 6.4.t. .. .                 ",
"                @ . e.t.a.+.O.y V u 6.6.4.4.=.@       O         ",
"                . . =.z.x.4.X.y N N 8.7.o.d.=..     O           ",
"                X   o >.d.x.} p f.M r 3.+.p.u.. .     O         ",
"                      -.m.t.N.9.q.l.r o.6.p.h.                O ",
"                      . t.t.8.9.M.M.M o.f.t..                   ",
"        .             @ @ # R } } p N f.a.b.  o                 ",
"                    . . @ D _ R } N.k.f.b.. .         O         ",
"                    . . D E ! ( U Q s.f.s K                     ",
"                    . J ~ { ` W A , y C g Y                     ",
"                  . . J ^ ) W / P = g t C a @                   ",
"                . . . m J S _ S : 2 3 d a b .                   ",
"                    . G c > A > k < 2 w d b j .               O ",
"                  . $ F b , * h 5 & 9 6 a G q   .   . .         ",
"                .     . F - k ; & 5 9 4 w j e .                 ",
"                    . .   & 1 &   7 8 9 6 x   .                 ",
"                O   O     O   X     $   .   X             O     ",
"                  O O   O   +       O     .   X                 ",
"                    O   O   O     . .   X               .       "
};
