/* XPM */
static char *_02f3bc0a2e34af5aec30f3421efae25ELkRg2zChkeEpQqm[] = {
/* columns rows colors chars-per-pixel */
"32 32 165 2 ",
"   c #010101",
".  c #0A0101",
"X  c #0A0902",
"o  c #040509",
"O  c #05090B",
"+  c #130200",
"@  c #1A0000",
"#  c #140800",
"$  c #100C0B",
"%  c #1E1506",
"&  c #261503",
"*  c #281602",
"=  c #2D1807",
"-  c #281608",
";  c #251B0D",
":  c #2C1E0C",
">  c #311601",
",  c #361D09",
"<  c #2B1F11",
"1  c #281E1C",
"2  c #322016",
"3  c #32231C",
"4  c #262020",
"5  c #292021",
"6  c #3A2C22",
"7  c #3B342D",
"8  c #3D3331",
"9  c #4A2711",
"0  c #4E2E17",
"q  c #462A1C",
"w  c #4A2D1D",
"e  c #512F1B",
"r  c #4F301A",
"t  c #402D21",
"y  c #482D22",
"u  c #4C3225",
"i  c #42332E",
"p  c #4A352A",
"a  c #413533",
"s  c #493831",
"d  c #453B3A",
"f  c #4F463F",
"g  c #5E4233",
"h  c #55463B",
"j  c #5D4539",
"k  c #52493D",
"l  c #5E4C3E",
"z  c #62442C",
"x  c #68482F",
"c  c #644531",
"v  c #6C4631",
"b  c #624638",
"n  c #6B4F39",
"m  c #724E3E",
"M  c #6D533E",
"N  c #73503A",
"B  c #554842",
"V  c #584942",
"C  c #665345",
"Z  c #6B5246",
"A  c #7A5A45",
"S  c #7D6D60",
"D  c #7D736A",
"F  c #885B44",
"G  c #8E5F4B",
"H  c #93634D",
"J  c #876655",
"K  c #8F6952",
"L  c #866C5E",
"P  c #8A6F5E",
"I  c #926953",
"U  c #986D5A",
"Y  c #97715C",
"T  c #A2755E",
"R  c #9A7A65",
"E  c #BA8D76",
"W  c #B5927E",
"Q  c #A6958B",
"!  c #A79B8F",
"~  c #AB998B",
"^  c #B29581",
"/  c #B19884",
"(  c #BC9A86",
")  c #B99A88",
"_  c #A59B95",
"`  c #AD9D94",
"'  c #AA9F9B",
"]  c #ADA49D",
"[  c #B3A197",
"{  c #BBA695",
"}  c #B5A29B",
"|  c #BDA59B",
" . c #BDAD9E",
".. c #AEA6A3",
"X. c #B2A4A1",
"o. c #B3ABA0",
"O. c #BCADA5",
"+. c #BEAFAA",
"@. c #BEB0A5",
"#. c #BEB6AB",
"$. c #BFB7B5",
"%. c #BBBBB4",
"&. c #C6A793",
"*. c #CBAC97",
"=. c #C3AC9C",
"-. c #CDAD98",
";. c #CDB19C",
":. c #D3B39F",
">. c #DBB39D",
",. c #C3ABA2",
"<. c #CFAFA0",
"1. c #C3B3A4",
"2. c #CBB2A3",
"3. c #C4B6AB",
"4. c #C4B8AC",
"5. c #CBBCAD",
"6. c #D2B2A1",
"7. c #D9B4A1",
"8. c #D6B9A5",
"9. c #DBBCA4",
"0. c #D3B7A9",
"q. c #D3BBAB",
"w. c #D9BDAB",
"e. c #CABDB3",
"r. c #C4BBB2",
"t. c #D3BCB1",
"y. c #DEBEB3",
"u. c #D2BFB8",
"i. c #DBC0AD",
"p. c #CCC1B4",
"a. c #C5C2BB",
"s. c #CDC3BA",
"d. c #D3C2B3",
"f. c #D9C4B4",
"g. c #D7C8B5",
"h. c #D5C8B8",
"j. c #DFC8BA",
"k. c #E1C1A8",
"l. c #E8C4AE",
"z. c #E2C1B0",
"x. c #DFDCD7",
"c. c #E5DBCF",
"v. c #E2DAD6",
"b. c #E5DCD3",
"n. c #E9DFD5",
"m. c #E1E1D7",
"M. c #EAE1D2",
"N. c #E4E3DE",
"B. c #E3E4DC",
"V. c #F4E9E3",
"C. c #F3ECE6",
"Z. c #FAEFEB",
"A. c #FEEFE8",
"S. c #FFF2E9",
"D. c #FFF6EE",
"F. c #FFF8EA",
"G. c #FFFAEF",
"H. c #F3F1F4",
"J. c #F6F0F2",
"K. c #FAFBF3",
"L. c FloralWhite",
"P. c #FFFDF2",
"I. c #FFFEF5",
"U. c #FCFBF5",
"Y. c #FFFFF8",
/* pixels */
"                  o   O             o     o             .     . ",
"                            _ ] ' J.H.o o o o               o   ",
"                  O     . ] O.} +.Z.$..                         ",
"o               o       X.} | =.[ D.C...$                   o   ",
"  o                 X . ` ,.y.L d.d.s.D   .                     ",
"o . .                   ` ,.y.y.L d.S d.. .   o               o ",
".                     . ' O.t.@ 5.g.g.  .   .                   ",
"                      . _ A.u.d.d.d.e.p..                       ",
"                o       U.C.s.a.b.M.n.r..     .   o o           ",
"                      r.x.N.B.m.#.o.O.D.v.. .                   ",
"          o     .     a.%.%.K.K.P.b.b.D.v.      o o             ",
"            o   .   . . a.I.I.%.P.a.3.n.. . .         o         ",
"        o         . . ! p.6 P.G.S.e.`  .Q . X       o           ",
"          o     . . ` d.p.q l F.G.u =.=.2.~ . .                 ",
".       o o     . . =.w.i.2.w g c q 0.=.*.{ + .       o o       ",
"  . . o           . 1.q.i.&.( r c w 6.;.;.=. ..       o   o     ",
"                    4.5.f./ ^ r z z -.*.^ =.5..       o         ",
"                . .   1.d.i.*.r 9.c e W ) 5.O.X                 ",
"        o         . + ,.w.8.l.>.9.k.9 ( :.0.3.                  ",
"        o         . . + <.>.>.>.i.:.v >.6.q.+ .                 ",
"        o   o     + + @ @ v G E 0 x x 8.w.j..                   ",
"                  . + @ N U H F A 8.w.z.w.+ . .                 ",
"                .   . Z J Y T I M , 9.6.u Z #                   ",
"          o       . . C P R K N M = q b y C . .                 ",
"                    . k C M n > & - y y j t .                   ",
".           o         k h : * : : ; 3 q p h i                   ",
"                        k : : ;   B 3 s 6 V 7                   ",
"                      X             1 a i V 7 X                 ",
"                        o           4 d 8 8 8                   ",
"                    o                 5 a 8                     ",
"                  o     o   o o o O     X .                     ",
"                .     O     o   o   o .   .                     "
};
