/* XPM */
static char *_e144ef7c66442f2ce0bd6d10fe361479xeiQmpADOXV4Q0w[] = {
/* columns rows colors chars-per-pixel */
"32 32 170 2 ",
"   c #010101",
".  c #0B0100",
"X  c #030905",
"o  c #010309",
"O  c #0B040C",
"+  c #130100",
"@  c #1B0000",
"#  c #0C0610",
"$  c #2F1B14",
"%  c #231E19",
"&  c #2A1D1B",
"*  c #24211D",
"=  c #2C241C",
"-  c #332114",
";  c #3D2B1F",
":  c #1D2225",
">  c #262422",
",  c #2C2220",
"<  c #252628",
"1  c #352C27",
"2  c #3B2E26",
"3  c #342C2A",
"4  c #3F3327",
"5  c #3C322C",
"6  c #3B3633",
"7  c #333738",
"8  c #3A3C3B",
"9  c #4A2B0F",
"0  c #432712",
"q  c #462C16",
"w  c #4A2A13",
"e  c #4F2F1A",
"r  c #512E15",
"t  c #4F3117",
"y  c #4B301B",
"u  c #51301E",
"i  c #453121",
"p  c #483123",
"a  c #48362C",
"s  c #603E25",
"d  c #55412F",
"f  c #5C432F",
"g  c #4F453C",
"h  c #534234",
"j  c #5D4434",
"k  c #554538",
"l  c #564A3C",
"z  c #5F4838",
"x  c #61412C",
"c  c #6E492C",
"v  c #614631",
"b  c #6E4F3A",
"n  c #67503E",
"m  c #6C5239",
"M  c #735136",
"N  c #785132",
"B  c #76563C",
"V  c #785539",
"C  c #544B43",
"Z  c #5D5145",
"A  c #5E5149",
"S  c #675241",
"D  c #65504B",
"F  c #6F5A49",
"G  c #725744",
"H  c #745842",
"J  c #725B49",
"K  c #795E49",
"L  c #845B3B",
"P  c #825D42",
"I  c #84664D",
"U  c #896A4E",
"Y  c #936C4D",
"T  c #8F6F56",
"R  c #927055",
"E  c #89796A",
"W  c #917A6C",
"Q  c #967D78",
"!  c #878078",
"~  c #A98D77",
"^  c #B38F75",
"/  c #AB988A",
"(  c #A2938C",
")  c #BA9F8C",
"_  c #A99D90",
"`  c #AB9D9C",
"'  c #BFA28B",
"]  c #AFA099",
"[  c #B5A594",
"{  c #BFAA96",
"}  c #BBAB9C",
"|  c #B8A5A1",
" . c #BBACA2",
".. c #BCAEAC",
"X. c #ACB6AE",
"o. c #BEB1A3",
"O. c #B7B0A8",
"+. c #BCB2A8",
"@. c #BFB8AE",
"#. c #BAB6B5",
"$. c #B3B1B2",
"%. c #C4A287",
"&. c #C5A289",
"*. c #C8A589",
"=. c #C4A592",
"-. c #C9A990",
";. c #C5AD9C",
":. c #CBB19F",
">. c #D2B49B",
",. c #D7B99F",
"<. c #DBB99E",
"1. c #C3AFA6",
"2. c #C3B2A4",
"3. c #CAB5A4",
"4. c #CFBAA7",
"5. c #C4B4A9",
"6. c #C9B7AC",
"7. c #CEB9AB",
"8. c #D2B6A2",
"9. c #D8B7A4",
"0. c #D4BAA5",
"q. c #DCBCA3",
"w. c #D4BCAB",
"e. c #DBBDAA",
"r. c #C6BCB3",
"t. c #CCBCB2",
"y. c #C5BCBC",
"u. c #C9B5B4",
"i. c #D5BEB3",
"p. c #D7BFBB",
"a. c #DBC4AF",
"s. c #CEC0B7",
"d. c #CFC6BF",
"f. c #D4C1B2",
"g. c #DAC2B6",
"h. c #D3C7BB",
"j. c #DDCABB",
"k. c #E6C4A9",
"l. c #E4C5B3",
"z. c #CEC6C3",
"x. c #D4CEC2",
"c. c #DED5D6",
"v. c #E4D7CF",
"b. c #ECDACE",
"n. c #E3D3C3",
"m. c #E2DBD4",
"M. c #E9DCD4",
"N. c #E8DEDD",
"B. c #E1DBDB",
"V. c #DFE0DB",
"C. c #ECE2D6",
"Z. c #FFEADE",
"A. c #E5DFE1",
"S. c #EDEEE8",
"D. c #FDEEE3",
"F. c #F5EFEF",
"G. c #FFEEE9",
"H. c #FAF0E7",
"J. c #F5F0EA",
"K. c #FDF3EC",
"L. c #F8FAEF",
"P. c #F7FEF6",
"I. c #FFFFF4",
"U. c #F5FFFF",
"Y. c #FFFFFA",
"T. c #FFFBFC",
"R. c #FFFEFF",
"E. c #FFFEFD",
"W. c #F8FEFE",
"Q. c #FBF5F9",
/* pixels */
"                o       . . / / P.U.W.  O o o o             X o ",
"                o X   X . ` 1. .T.X.W.  o O .       X       o   ",
"                    O   y.u.p.u.I.L.T.#.  .                 .   ",
"                      . ` } Q i.t.x.! z..                       ",
"                      . ( t.g.E f.E s.h.                    o   ",
"o o                   . _ [ + w.w.j.. r.                        ",
"  o o                 . C.o.i.i.f.w.t.m..                       ",
"                  T.T.  m. .h.D.Z.K.s.K.      X                 ",
"                E.E.E.E.B.F.c.& D $ H.J.V.X       o o           ",
"                E.$.E.E.#.S.Q... .} C.c.S.  X                   ",
"                E.T.T.3 y.m.F.N.G.K.v.C.        o               ",
"                  5 C A 2 r.M.H.G.M.H.+.r.          o           ",
"      o       . .  .i a p { s.n.M.b.7.} 5. .  .                 ",
"          o     2.7.7.e v q { { 3.3.4.4.3.7.2..                 ",
"              . 1.1.l.w x u =.) 0.:.8.~ e.8.;.+ .               ",
"              . . 7.9.e.u 9.e.=.' ,.>.' q.g.} . .               ",
"        o         . 6.f.i.e.e.e &.&.&.q.a.5.O.                  ",
"          o o o     . 6.w.8.9.w ^ *.k.>.0.5.            .       ",
"        o o o   O . . + + w M s e q.<.,.;.+ . .                 ",
"            o     . + + V V r q.q.e.-.B + . .                   ",
"              o   + + @ N L c k.0.:.q H B + .                   ",
"o                 . + V L L P m p j 0 T U m + .     o           ",
"o             o   . K V Y Y B J $ a f t R I F .     o           ",
"o     .     o       n V Y M + - = 5 v q 9 B S .   o             ",
"o   .   .     o     + H I H . = 6 = ; v w H + .     o           ",
"o o           o   O k j J . 5 6 o * ; p q f k .                 ",
"      .     o o     l h . . * <   > 2 - + d Z       o           ",
"                X     C . % 8 :     1 4 . l C                   ",
"                    . .   > 7 X     % = . C   X                 ",
"                X           X   o           X                   ",
"                  .   .                     o         .         ",
"                    .                   o   o o     .   .       "
};
